<svg width="640" height="200" xmlns="http://www.w3.org/2000/svg">

 <g>
  <title>background</title>
  <rect fill="#6a56d8" id="canvas_background" height="202" width="642" y="-1" x="-1"/>
 </g>
 <g>
  <title>Layer 1</title>
  <path stroke="null" id="svg_1" fill-rule="evenodd" fill="#ffffff" d="m-0.000005,147.638268c0,3.55301 2.812914,6.438272 6.277855,6.438272c3.038456,0 5.574142,-2.213546 6.152922,-5.150674l0.125209,0c0,-2.831695 2.261222,-5.150391 5.023002,-5.150391c2.760951,0 5.022173,2.318696 5.022173,5.150391l0,2.575479c0,5.690598 4.495356,10.299648 10.044899,10.299648l10.044346,0c5.549819,0 10.045175,-4.60905 10.045175,-10.299648l0,-38.62623c0,-5.690881 -4.495356,-10.299931 -10.045175,-10.299931l-10.044346,0c-5.549819,0 -10.044899,4.60905 -10.044899,10.299931l0,2.575195c0,2.831695 -2.261222,5.150391 -5.022173,5.150391c-2.761781,0 -5.023002,-2.318696 -5.023002,-5.150391l0,-15.450322c0,-27.012909 21.370079,-48.926161 47.713408,-48.926161s47.712856,21.913252 47.712856,48.926161l0,15.450322c0,2.831695 -2.260945,5.150391 -5.022726,5.150391c-2.760399,0 -5.02162,-2.318696 -5.02162,-5.150391l0,-2.575195c0,-5.690881 -4.496185,-10.299931 -10.046005,-10.299931l-10.044346,0c-5.549543,0 -10.044623,4.60905 -10.044623,10.299931l0,38.62623c0,5.690598 4.49508,10.299648 10.044623,10.299648l10.044346,0c5.549819,0 10.046005,-4.60905 10.046005,-10.299648l0,-2.575479c0,-2.831695 2.261222,-5.150391 5.02162,-5.150391c2.761781,0 5.022726,2.318696 5.022726,5.150391l0.124656,0c0.576569,2.937128 3.115295,5.150674 6.154028,5.150674c3.46494,0 6.277302,-2.885262 6.277302,-6.438272l0,-47.63828c0,-34.144438 -26.970479,-61.801004 -60.269118,-61.801004c-33.298086,0 -60.269118,27.656566 -60.269118,61.801004l0,47.63828z" clip-rule="evenodd"/>
  <text stroke="null" transform="matrix(4.134573155399089,0,0,5.16113241176657,-2791.203531849037,-908.1200874553552) " xml:space="preserve" text-anchor="start" font-family="'Trebuchet MS', Gadget, sans-serif" font-size="24" id="svg_2" y="204.652625" x="709.64961" stroke-opacity="null" stroke-width="0" fill="#ffffff">Music Snap</text>
 </g>
</svg>